<?xml version="1.0" encoding="utf-8"?>
<!-- Generator: Adobe Illustrator 21.0.0, SVG Export Plug-In . SVG Version: 6.00 Build 0)  -->
<svg version="1.1" id="Слой_1" xmlns="http://www.w3.org/2000/svg" xmlns:xlink="http://www.w3.org/1999/xlink" x="0px" y="0px"
	 viewBox="0 0 1366 768" style="enable-background:new 0 0 1366 768;" xml:space="preserve">
<style type="text/css">
	.st0{fill:none;}
	.st1{opacity:0.5;fill:none;}
	.st2{fill:#CE652F;}
	.st3{fill:#EEAC34;}
	.st4{fill:#FFFFFF;}
	.st5{fill:url(#SVGID_1_);}
	.st6{fill:#0C1E3F;}
	.st7{font-family:'MyriadPro-Regular';}
	.st8{font-size:21px;}
</style>
<g>
	<rect x="349.9" y="259.2" class="st0" width="104.9" height="104.9"/>
	<path class="st1" d="M454.8,327.8c-5.9-5.9-30.7-30.7-30.8-30.7c-2.5-2.6-5.6-4.5-9.5-5.9c-0.1-0.2-1-1-1.3-1.3
		c-1.1-1.4-4.6-3.4-10.9-3.4c-8,0-11.4,3.1-11.4,4.3v0c-12.9,4-17.9,15.2-18.6,29.5c0,0,0,0,0,0c-2.6,0.3-1.4,10,0.1,10.2
		c0.1,0.1,0.1,0.2,0.2,0.3c0.4,1,2.1,4.5,3.5,5.6c0.3,0.3,21.6,21.7,27.7,27.7h50.9V327.8z"/>
	<g>
		<path class="st2" d="M424.4,328.6l-22-0.1l-22,0.1l-7.8,2c0,0,2.3,5.5,4.1,6.1c1.8,0.7,17.4-1.3,25.8-1.3s19.7,1.6,24.2,0
			c4.5-1.6,5.6-4.9,5.6-4.9L424.4,328.6z"/>
		<path class="st3" d="M424.4,327l-22-0.1l-22,0.1l-7.8,3.5c0,0,2.3,3.9,4.1,4.6c1.8,0.7,17.4-1.3,25.8-1.3s19.7,1.6,24.2,0
			c4.5-1.6,5.6-3.3,5.6-3.3L424.4,327z"/>
		<path class="st4" d="M402.3,289.3c-25.2,0-31.5,18.3-29.8,41.2c0,0,15.7-2.7,29.8-2.7c14.1,0,29.8,2.7,29.8,2.7
			C433.9,307.6,427.6,289.3,402.3,289.3z"/>
		<radialGradient id="SVGID_1_" cx="431.2827" cy="331.3288" r="1.849395e-02" gradientUnits="userSpaceOnUse">
			<stop  offset="0" style="stop-color:#F4A82D"/>
			<stop  offset="0.5816" style="stop-color:#E08D1D"/>
			<stop  offset="0.9109" style="stop-color:#CD740E"/>
			<stop  offset="1" style="stop-color:#C76C0A"/>
		</radialGradient>
		<path class="st5" d="M431.3,331.3C431.3,331.3,431.3,331.3,431.3,331.3C431.3,331.3,431.3,331.3,431.3,331.3z"/>
		<path class="st2" d="M432.1,330.5c0.3-3.7,0.3-7.3,0.2-10.7c-5.7-0.8-15.4-3.4-17.3-12.8l-0.8-15.9c-3.4-1.1-7.3-1.7-11.9-1.7
			c-4.6,0-8.5,0.6-11.9,1.7l-0.8,15.9c-1.8,9.4-11.5,12.1-17.3,12.8c-0.2,3.4-0.1,7,0.2,10.7c0,0,15.7-2.7,29.8-2.7
			C416.4,327.8,432.1,330.5,432.1,330.5z"/>
		<path class="st4" d="M432.3,320.4c-8.3-1.1-16.2-4.9-17.8-13.3l-0.8-16.2v0c0-1.3-3.4-4.3-11.4-4.3c-8,0-11.4,3.1-11.4,4.3v0
			l-0.8,16.2c-1.6,8.4-9.5,12.2-17.8,13.3c-2.6,0.3-1.4,10.2,0.2,10.2c0,0,15.7-2.7,29.8-2.7c14.1,0,29.8,2.7,29.8,2.7
			C433.7,330.5,435,320.7,432.3,320.4z"/>
		<g>
			<path class="st6" d="M401.3,298c0,8.5-5.6,8.1-6.1,13.5c-0.4,4.2,2.9,7.6,7.1,7.6c4.2,0,7.2-3.3,7.2-7.4
				C409.5,306.5,405.7,301.6,401.3,298z"/>
			<path class="st4" d="M406,316.3c0.8-0.9,1.4-2.1,1.6-3.5c0.6-4.3-2-8.7-5.2-12.3c2.9,3.9,5,8.7,4.3,13.4
				C406.5,314.7,406.3,315.5,406,316.3z"/>
		</g>
	</g>
</g>
<text transform="matrix(1 0 0 1 466.8872 325.3296)" class="st7 st8">Terra Scientia</text>
</svg>
